<?xml version="1.0" encoding="utf-8"?>
<!-- Generator: Adobe Illustrator 25.2.3, SVG Export Plug-In . SVG Version: 6.00 Build 0)  -->
<svg version="1.1" id="Camada_1" xmlns="http://www.w3.org/2000/svg" xmlns:xlink="http://www.w3.org/1999/xlink" x="0px" y="0px"
	 viewBox="0 0 300 50" style="enable-background:new 0 0 300 50;" xml:space="preserve">
<style type="text/css">
	.st0{fill:#FFFFFF;}
	.st1{fill:#111111;}
</style>
<g>
	<path class="st0" d="M82.09,36.5c-0.48,0-0.85-0.17-1.11-0.5c-0.26-0.33-0.39-0.74-0.39-1.22v-1.28c0-0.52,0.13-0.94,0.39-1.25
		c0.26-0.31,0.63-0.47,1.11-0.47h0.22c0.52,0,0.9,0.16,1.14,0.47c0.24,0.32,0.36,0.73,0.36,1.25v1.28c0,0.48-0.12,0.89-0.36,1.22
		c-0.24,0.33-0.62,0.5-1.14,0.5H82.09z"/>
	<path class="st0" d="M99.74,8.37c2.08,0,3.98,0.57,5.71,1.7c1.73,1.13,2.9,2.91,3.54,5.32l-0.72,0.5l0.28-1.06
		c0.48-1.23,1.33-2.32,2.53-3.29c1.21-0.97,2.56-1.74,4.07-2.31c1.5-0.58,2.96-0.86,4.37-0.86c2.23,0,4.07,0.48,5.51,1.45
		c1.45,0.97,2.52,2.26,3.2,3.87c0.69,1.62,1.03,3.44,1.03,5.49v16.21c0,0.3-0.1,0.56-0.31,0.78c-0.2,0.22-0.47,0.33-0.81,0.33
		c-0.33,0-0.6-0.11-0.81-0.33c-0.2-0.22-0.31-0.48-0.31-0.78V19.4c0-1.63-0.27-3.13-0.81-4.48c-0.54-1.36-1.37-2.43-2.51-3.23
		c-1.13-0.8-2.61-1.2-4.43-1.2c-1.6,0-3.16,0.4-4.68,1.2c-1.52,0.8-2.78,1.88-3.76,3.23c-0.98,1.36-1.48,2.85-1.48,4.48v15.99
		c0,0.3-0.1,0.56-0.31,0.78c-0.2,0.22-0.47,0.33-0.81,0.33c-0.33,0-0.6-0.11-0.81-0.33c-0.2-0.22-0.31-0.48-0.31-0.78V19.12
		c0-1.6-0.25-3.04-0.75-4.34c-0.5-1.3-1.29-2.34-2.37-3.12c-1.08-0.78-2.51-1.17-4.29-1.17c-1.56,0-3.07,0.39-4.54,1.17
		c-1.47,0.78-2.68,1.82-3.65,3.12c-0.97,1.3-1.45,2.75-1.45,4.34v16.26c0,0.3-0.11,0.56-0.33,0.78c-0.22,0.22-0.48,0.33-0.78,0.33
		c-0.33,0-0.6-0.11-0.81-0.33c-0.2-0.22-0.31-0.48-0.31-0.78V9.82c0-0.3,0.11-0.56,0.33-0.78c0.22-0.22,0.48-0.33,0.78-0.33
		c0.33,0,0.6,0.11,0.81,0.33c0.2,0.22,0.31,0.48,0.31,0.78v6.07l-1.67,2.84c0-1.3,0.31-2.56,0.95-3.79
		c0.63-1.23,1.48-2.33,2.53-3.31c1.06-0.98,2.26-1.77,3.62-2.37C96.89,8.67,98.3,8.37,99.74,8.37z"/>
	<path class="st0" d="M157.95,8.7c0.33,0,0.6,0.11,0.81,0.33c0.2,0.22,0.31,0.48,0.31,0.78v25.57c0,0.3-0.11,0.56-0.33,0.78
		c-0.22,0.22-0.48,0.33-0.78,0.33c-0.33,0-0.6-0.11-0.81-0.33c-0.2-0.22-0.31-0.48-0.31-0.78v-7.91l0.89-0.72
		c0,1.19-0.3,2.4-0.89,3.62c-0.59,1.23-1.41,2.34-2.45,3.34c-1.04,1-2.27,1.81-3.68,2.42c-1.41,0.61-2.93,0.92-4.57,0.92
		c-2.49,0-4.71-0.65-6.66-1.95c-1.95-1.3-3.48-3.06-4.6-5.29c-1.11-2.23-1.67-4.73-1.67-7.52c0-2.82,0.57-5.32,1.7-7.49
		c1.13-2.17,2.67-3.88,4.62-5.12c1.95-1.24,4.15-1.87,6.6-1.87c1.6,0,3.1,0.29,4.51,0.86c1.41,0.58,2.65,1.38,3.7,2.42
		c1.06,1.04,1.88,2.26,2.48,3.65c0.59,1.39,0.89,2.91,0.89,4.54l-0.89-1.39V9.82c0-0.3,0.1-0.56,0.31-0.78
		C157.35,8.81,157.62,8.7,157.95,8.7z M146.25,34.94c2.08,0,3.94-0.55,5.57-1.64c1.63-1.1,2.91-2.6,3.84-4.51
		c0.93-1.91,1.39-4.07,1.39-6.49c0-2.3-0.46-4.39-1.39-6.27c-0.93-1.87-2.21-3.36-3.84-4.46c-1.63-1.1-3.49-1.64-5.57-1.64
		c-2.04,0-3.88,0.53-5.51,1.59c-1.63,1.06-2.92,2.52-3.87,4.37c-0.95,1.86-1.42,3.99-1.42,6.41c0,2.41,0.46,4.58,1.39,6.49
		c0.93,1.91,2.21,3.42,3.84,4.51C142.32,34.39,144.17,34.94,146.25,34.94z"/>
	<path class="st0" d="M177.61,7.81c2.34,0,4.24,0.46,5.71,1.39c1.47,0.93,2.54,2.19,3.23,3.79c0.69,1.6,1.03,3.38,1.03,5.35v17.04
		c0,0.3-0.11,0.56-0.33,0.78c-0.22,0.22-0.48,0.33-0.78,0.33c-0.33,0-0.6-0.11-0.81-0.33c-0.2-0.22-0.31-0.48-0.31-0.78V18.56
		c0-1.6-0.27-3.04-0.81-4.34c-0.54-1.3-1.39-2.34-2.56-3.12c-1.17-0.78-2.7-1.17-4.59-1.17c-1.63,0-3.23,0.39-4.79,1.17
		c-1.56,0.78-2.85,1.82-3.87,3.12c-1.02,1.3-1.53,2.75-1.53,4.34v16.82c0,0.3-0.11,0.56-0.33,0.78c-0.22,0.22-0.48,0.33-0.78,0.33
		c-0.33,0-0.6-0.11-0.81-0.33c-0.2-0.22-0.31-0.48-0.31-0.78V9.82c0-0.3,0.11-0.56,0.33-0.78c0.22-0.22,0.48-0.33,0.78-0.33
		c0.33,0,0.6,0.11,0.81,0.33c0.2,0.22,0.31,0.48,0.31,0.78v5.46l-1.39,2.67c0-1.34,0.35-2.62,1.06-3.84
		c0.7-1.23,1.63-2.31,2.78-3.26c1.15-0.95,2.42-1.69,3.82-2.23C174.85,8.08,176.24,7.81,177.61,7.81z"/>
	<path class="st0" d="M216.27,8.7c0.33,0,0.6,0.11,0.81,0.33c0.2,0.22,0.31,0.48,0.31,0.78v25.57c0,0.3-0.11,0.56-0.33,0.78
		c-0.22,0.22-0.48,0.33-0.78,0.33c-0.33,0-0.6-0.11-0.81-0.33c-0.2-0.22-0.31-0.48-0.31-0.78v-7.91l0.89-0.72
		c0,1.19-0.3,2.4-0.89,3.62c-0.59,1.23-1.41,2.34-2.45,3.34c-1.04,1-2.27,1.81-3.68,2.42c-1.41,0.61-2.93,0.92-4.57,0.92
		c-2.49,0-4.71-0.65-6.66-1.95c-1.95-1.3-3.48-3.06-4.6-5.29c-1.11-2.23-1.67-4.73-1.67-7.52c0-2.82,0.57-5.32,1.7-7.49
		c1.13-2.17,2.67-3.88,4.62-5.12c1.95-1.24,4.15-1.87,6.6-1.87c1.6,0,3.1,0.29,4.51,0.86c1.41,0.58,2.65,1.38,3.7,2.42
		c1.06,1.04,1.88,2.26,2.48,3.65c0.59,1.39,0.89,2.91,0.89,4.54l-0.89-1.39V9.82c0-0.3,0.1-0.56,0.31-0.78
		C215.66,8.81,215.93,8.7,216.27,8.7z M204.57,34.94c2.08,0,3.94-0.55,5.57-1.64c1.63-1.1,2.91-2.6,3.84-4.51
		c0.93-1.91,1.39-4.07,1.39-6.49c0-2.3-0.46-4.39-1.39-6.27c-0.93-1.87-2.21-3.36-3.84-4.46c-1.63-1.1-3.49-1.64-5.57-1.64
		c-2.04,0-3.88,0.53-5.51,1.59c-1.63,1.06-2.92,2.52-3.87,4.37c-0.95,1.86-1.42,3.99-1.42,6.41c0,2.41,0.46,4.58,1.39,6.49
		c0.93,1.91,2.21,3.42,3.84,4.51C200.63,34.39,202.49,34.94,204.57,34.94z"/>
	<path class="st0" d="M234.81,7.81c1.67,0,3.23,0.3,4.68,0.89c1.45,0.59,2.72,1.37,3.82,2.34c1.1,0.97,1.95,2.01,2.56,3.12
		c0.61,1.11,0.92,2.21,0.92,3.29l-0.72-2.06V9.82c0-0.3,0.1-0.56,0.31-0.78c0.2-0.22,0.47-0.33,0.81-0.33s0.6,0.11,0.81,0.33
		c0.2,0.22,0.31,0.48,0.31,0.78v23.95c0,2.86-0.58,5.33-1.75,7.41c-1.17,2.08-2.78,3.68-4.82,4.79c-2.04,1.11-4.42,1.67-7.13,1.67
		c-1.49,0-2.98-0.19-4.48-0.58c-1.5-0.39-2.76-0.88-3.76-1.48c-1-0.59-1.5-1.23-1.5-1.89c0-0.3,0.08-0.54,0.25-0.72
		c0.17-0.19,0.4-0.28,0.7-0.28c0.37,0,0.71,0.2,1.03,0.61c0.31,0.41,0.88,0.78,1.7,1.11c0.33,0.11,0.79,0.26,1.36,0.45
		c0.58,0.19,1.27,0.34,2.09,0.47c0.82,0.13,1.73,0.19,2.73,0.19c3.53,0,6.3-1.09,8.33-3.26c2.02-2.17,3.04-5,3.04-8.49v-5.51
		l0.56,0.06c-0.45,1.6-1.1,2.95-1.95,4.07c-0.85,1.11-1.83,2.01-2.92,2.7c-1.1,0.69-2.25,1.19-3.45,1.5
		c-1.21,0.32-2.37,0.47-3.48,0.47c-2.56,0-4.86-0.64-6.88-1.92c-2.02-1.28-3.63-3.03-4.82-5.24c-1.19-2.21-1.78-4.71-1.78-7.49
		s0.59-5.28,1.78-7.49c1.19-2.21,2.79-3.95,4.82-5.21C229.96,8.44,232.25,7.81,234.81,7.81z M234.93,9.93
		c-2.15,0-4.09,0.54-5.82,1.62c-1.73,1.08-3.08,2.55-4.07,4.43c-0.98,1.88-1.48,4.02-1.48,6.43c0,2.38,0.49,4.51,1.48,6.41
		c0.98,1.89,2.34,3.39,4.07,4.48c1.73,1.1,3.67,1.64,5.82,1.64c2.15,0,4.08-0.53,5.79-1.59c1.71-1.06,3.06-2.52,4.07-4.4
		c1-1.87,1.5-4.06,1.5-6.55c0-2.49-0.5-4.67-1.5-6.54c-1-1.87-2.36-3.33-4.07-4.37C239.01,10.45,237.08,9.93,234.93,9.93z"/>
	<path class="st0" d="M265.39,37.05c-2.78,0-5.25-0.59-7.38-1.78c-2.14-1.19-3.82-2.87-5.04-5.04c-1.23-2.17-1.84-4.72-1.84-7.66
		c0-3.12,0.6-5.77,1.81-7.96c1.21-2.19,2.77-3.87,4.68-5.04c1.91-1.17,3.95-1.75,6.1-1.75c1.56,0,3.08,0.25,4.57,0.75
		c1.48,0.5,2.81,1.28,3.98,2.34c1.17,1.06,2.12,2.38,2.84,3.95c0.72,1.58,1.12,3.46,1.2,5.65c0,0.3-0.11,0.57-0.33,0.81
		c-0.22,0.24-0.48,0.36-0.78,0.36h-22.73l-0.33-2.12h22.45l-0.56,0.5v-1c-0.19-1.97-0.81-3.62-1.87-4.96
		c-1.06-1.34-2.33-2.35-3.82-3.04c-1.49-0.69-3.03-1.03-4.62-1.03c-1.11,0-2.28,0.25-3.51,0.75s-2.36,1.26-3.4,2.28
		c-1.04,1.02-1.89,2.31-2.53,3.87c-0.65,1.56-0.98,3.38-0.98,5.46c0,2.27,0.45,4.34,1.36,6.24c0.91,1.89,2.26,3.42,4.07,4.57
		c1.8,1.15,4.02,1.73,6.66,1.73c1.26,0,2.45-0.21,3.56-0.64c1.11-0.43,2.12-0.99,3.01-1.7c0.89-0.7,1.62-1.47,2.17-2.28
		c0.3-0.33,0.61-0.5,0.95-0.5c0.26,0,0.48,0.1,0.67,0.31c0.19,0.2,0.28,0.44,0.28,0.7c0,0.26-0.07,0.48-0.22,0.67
		c-1.15,1.49-2.63,2.78-4.43,3.9C269.58,36.5,267.58,37.05,265.39,37.05z"/>
	<path class="st0" d="M281.38,36.5c-0.33,0-0.6-0.11-0.81-0.33c-0.2-0.22-0.31-0.48-0.31-0.78V9.82c0-0.3,0.11-0.56,0.33-0.78
		c0.22-0.22,0.48-0.33,0.78-0.33c0.33,0,0.6,0.11,0.81,0.33c0.2,0.22,0.31,0.48,0.31,0.78v9.41l-0.95,1.45
		c0-1.45,0.25-2.91,0.75-4.4c0.5-1.48,1.23-2.87,2.2-4.15c0.96-1.28,2.14-2.32,3.54-3.12c1.39-0.8,3-1.2,4.82-1.2
		c0.52,0,1.08,0.07,1.67,0.22c0.59,0.15,0.89,0.5,0.89,1.06c0,0.33-0.09,0.61-0.28,0.84c-0.19,0.22-0.43,0.33-0.72,0.33
		c-0.22,0-0.49-0.08-0.81-0.25c-0.32-0.17-0.77-0.25-1.36-0.25c-1.19,0-2.36,0.35-3.51,1.06c-1.15,0.71-2.2,1.64-3.15,2.81
		c-0.95,1.17-1.7,2.44-2.26,3.82c-0.56,1.37-0.84,2.71-0.84,4.01v13.93c0,0.3-0.11,0.56-0.33,0.78
		C281.94,36.39,281.68,36.5,281.38,36.5z"/>
</g>
<path class="st1" d="M22.92,32.06c-0.3-0.08-0.6-0.08-0.9-0.08c-1.2-0.01-2.39-0.14-3.53-0.53c-1.85-0.63-3.28-1.78-4.18-3.53
	c-0.63-1.23-0.91-2.56-0.99-3.93c-0.04-0.64-0.04-1.29-0.04-1.93c0-3,0-6.01,0-9.01c0-0.1,0.01-0.2,0.01-0.32c0.12,0,0.2,0,0.29,0
	c1.33,0,2.66,0,4,0c0.45,0,0.87-0.09,1.25-0.34c0.75-0.5,1.07-1.21,1-2.11c-0.07-0.96-0.78-1.79-1.72-1.99
	c-0.22-0.05-0.44-0.06-0.67-0.06c-1.28-0.01-2.57,0-3.85,0c-0.09,0-0.19,0-0.31,0c0-0.11,0-0.2,0-0.28c0-1.27,0-2.53,0-3.8
	c0-0.21-0.01-0.43-0.06-0.64c-0.23-1.03-0.86-1.7-1.9-1.96c-0.1-0.02-0.2-0.05-0.3-0.07c-0.26,0-0.51,0-0.77,0
	c-0.04,0.01-0.07,0.04-0.11,0.04C8.9,1.71,8,2.76,7.99,4.03c-0.01,1.31,0,2.61,0,3.92c0,0.09,0,0.17,0,0.26
	c-0.18,0.02-0.34,0.03-0.5,0.04C6.62,8.31,5.68,9.05,5.5,9.96c-0.01,0.08-0.06,0.15-0.09,0.22c0,0.21,0,0.41,0,0.62
	c0.03,0.07,0.08,0.14,0.09,0.21c0.26,0.96,1.18,1.69,2.18,1.71c0.09,0,0.19,0,0.3,0c0,0.12,0,0.22,0,0.31c0,3.28,0,6.57,0,9.85
	c0,0.54,0.02,1.08,0.05,1.62c0.09,1.43,0.35,2.83,0.82,4.18c0.71,2.01,1.85,3.73,3.49,5.11c1.99,1.67,4.33,2.53,6.87,2.87
	c0.64,0.09,1.28,0.14,1.93,0.17c0.51,0.02,1.02,0.03,1.53-0.02c1.3-0.12,2.13-1.23,2.09-2.4C24.74,33.29,24.02,32.35,22.92,32.06z"
	/>
<path class="st1" d="M70.33,23.54c-0.31-0.39-0.62-0.79-0.93-1.19c0.05-0.07,0.1-0.13,0.15-0.2c2.37-3.04,4.75-6.08,7.12-9.12
	c0.25-0.32,0.51-0.64,0.74-0.97c0.39-0.53,0.56-1.14,0.44-1.79c-0.33-1.93-2.32-2.41-3.51-1.83c-0.48,0.23-0.85,0.59-1.16,1.01
	c-2.21,2.95-4.42,5.89-6.63,8.84c-0.05,0.07-0.1,0.13-0.17,0.21c-0.1-0.12-0.18-0.22-0.25-0.32c-2.33-2.97-4.66-5.95-7-8.92
	c-0.64-0.81-1.47-1.17-2.51-1c-1.42,0.22-2.55,1.56-2.17,3.22c0.1,0.42,0.34,0.76,0.61,1.1c2.63,3.34,5.26,6.69,7.89,10.04
	c0.04,0.05,0.07,0.1,0.1,0.15c-0.05,0.06-0.09,0.12-0.12,0.16c-2.56,3.23-5.12,6.46-7.68,9.69c-0.15,0.19-0.3,0.39-0.41,0.61
	c-0.38,0.74-0.43,1.49-0.03,2.24c0.25,0.47,0.66,0.77,1.11,1.02c1.11,0.59,2.43,0.31,3.2-0.68c2.3-2.95,4.61-5.91,6.91-8.86
	c0.05-0.06,0.1-0.12,0.17-0.2c0.06,0.07,0.09,0.11,0.13,0.16c1.47,1.87,2.94,3.73,4.4,5.6c0.86,1.1,1.72,2.19,2.59,3.29
	c0.28,0.36,0.62,0.64,1.04,0.83c1.1,0.5,2.38,0.14,3.12-0.87c0.66-0.9,0.67-2.26-0.11-3.24C75.02,29.53,72.68,26.53,70.33,23.54z"/>
<path class="st1" d="M51.82,20.96c-0.05-0.84-0.13-1.67-0.3-2.49c-0.34-1.67-1-3.21-1.94-4.62c-1.26-1.9-2.89-3.4-4.94-4.4
	c-2.49-1.22-5.12-1.58-7.84-1.09c-2.5,0.45-4.67,1.58-6.48,3.36c-2.35,2.31-3.67,5.13-4.09,8.39c-0.14,1.06-0.19,2.12-0.16,3.19
	c0.03,1.15,0.15,2.29,0.45,3.4c1.19,4.5,3.96,7.61,8.31,9.27c1.74,0.66,3.56,0.9,5.42,0.9c1.49,0,2.94-0.24,4.33-0.75
	c2.14-0.79,4-2,5.54-3.68c0.53-0.57,0.77-1.25,0.63-2.02c-0.22-1.22-1.41-2.02-2.63-1.8c-0.49,0.09-0.93,0.29-1.3,0.61
	c-0.4,0.34-0.77,0.72-1.18,1.04c-0.9,0.72-1.92,1.23-3.04,1.51c-1.49,0.38-3,0.39-4.51,0.09c-1.79-0.35-3.31-1.22-4.55-2.55
	c-0.88-0.94-1.5-2.02-1.91-3.2c-0.24-0.67-0.39-1.38-0.48-2.11c-0.02-0.1-0.03-0.2-0.05-0.31c0.01,0,0.01,0,0.01,0
	c-0.05-0.52-0.07-1.04-0.07-1.58c0-1.2,0.16-2.32,0.48-3.39c0-0.01,0.01-0.02,0.01-0.03c0.01-0.03,0.02-0.05,0.03-0.08
	c0.05-0.17,0.11-0.34,0.17-0.51c0.33-0.92,0.78-1.77,1.42-2.53c1.06-1.24,2.4-2.03,3.99-2.39c2.43-0.55,4.66-0.09,6.65,1.41
	c1.06,0.8,1.88,1.79,2.31,3.06c0.14,0.41,0.22,0.85,0.32,1.27c0.01,0.06,0.01,0.12,0.02,0.21c-4.14,0-4.37,0-8.47,0v0
	c-0.62,0-1.23,0-1.85,0c-0.45,0-0.88,0.11-1.25,0.36c-0.75,0.5-1.07,1.21-1,2.11c0.07,0.96,0.78,1.79,1.72,1.99
	c0.22,0.05,0.45,0.11,0.67,0.11c0.56,0,1.13,0,1.69,0l0,0c0.01,0,0.01,0,0.01,0c0,0,0,0,0,0l0,0c5.04,0,6.12-0.02,11.17-0.02
	c0.1,0,0.19,0,0.29,0c0.99-0.09,1.73-0.57,2.18-1.46C51.81,21.85,51.84,21.41,51.82,20.96z"/>
</svg>
