<?xml version="1.0" encoding="utf-8"?>
<!-- Generator: Adobe Illustrator 25.2.3, SVG Export Plug-In . SVG Version: 6.00 Build 0)  -->
<svg version="1.1" id="Camada_1" xmlns="http://www.w3.org/2000/svg" xmlns:xlink="http://www.w3.org/1999/xlink" x="0px" y="0px"
	 viewBox="0 0 300 50" style="enable-background:new 0 0 300 50;" xml:space="preserve">
<style type="text/css">
	.st0{fill:#00AFFA;}
	.st1{fill:#F7F7F7;}
</style>
<g>
	<g>
		<path class="st0" d="M82.1,36.5c-0.5,0-0.8-0.2-1.1-0.5s-0.4-0.7-0.4-1.2v-1.3c0-0.5,0.1-0.9,0.4-1.2c0.3-0.3,0.6-0.5,1.1-0.5h0.2
			c0.5,0,0.9,0.2,1.1,0.5c0.2,0.3,0.4,0.7,0.4,1.2v1.3c0,0.5-0.1,0.9-0.4,1.2s-0.6,0.5-1.1,0.5H82.1z"/>
		<path class="st0" d="M99.7,8.4c2.1,0,4,0.6,5.7,1.7c1.7,1.1,2.9,2.9,3.5,5.3l-0.7,0.5l0.3-1.1c0.5-1.2,1.3-2.3,2.5-3.3
			c1.2-1,2.6-1.7,4.1-2.3c1.5-0.6,3-0.9,4.4-0.9c2.2,0,4.1,0.5,5.5,1.4c1.4,1,2.5,2.3,3.2,3.9c0.7,1.6,1,3.4,1,5.5v16.2
			c0,0.3-0.1,0.6-0.3,0.8c-0.2,0.2-0.5,0.3-0.8,0.3c-0.3,0-0.6-0.1-0.8-0.3c-0.2-0.2-0.3-0.5-0.3-0.8v-16c0-1.6-0.3-3.1-0.8-4.5
			c-0.5-1.4-1.4-2.4-2.5-3.2c-1.1-0.8-2.6-1.2-4.4-1.2c-1.6,0-3.2,0.4-4.7,1.2s-2.8,1.9-3.8,3.2c-1,1.4-1.5,2.9-1.5,4.5v16
			c0,0.3-0.1,0.6-0.3,0.8c-0.2,0.2-0.5,0.3-0.8,0.3c-0.3,0-0.6-0.1-0.8-0.3c-0.2-0.2-0.3-0.5-0.3-0.8V19.1c0-1.6-0.2-3-0.8-4.3
			s-1.3-2.3-2.4-3.1s-2.5-1.2-4.3-1.2c-1.6,0-3.1,0.4-4.5,1.2s-2.7,1.8-3.7,3.1s-1.4,2.8-1.4,4.3v16.3c0,0.3-0.1,0.6-0.3,0.8
			c-0.2,0.2-0.5,0.3-0.8,0.3c-0.3,0-0.6-0.1-0.8-0.3c-0.2-0.2-0.3-0.5-0.3-0.8V9.8c0-0.3,0.1-0.6,0.3-0.8c0.2-0.2,0.5-0.3,0.8-0.3
			c0.3,0,0.6,0.1,0.8,0.3c0.2,0.2,0.3,0.5,0.3,0.8v6.1l-1.7,2.8c0-1.3,0.3-2.6,0.9-3.8c0.6-1.2,1.5-2.3,2.5-3.3
			c1.1-1,2.3-1.8,3.6-2.4C96.9,8.7,98.3,8.4,99.7,8.4z"/>
		<path class="st0" d="M157.9,8.7c0.3,0,0.6,0.1,0.8,0.3c0.2,0.2,0.3,0.5,0.3,0.8v25.6c0,0.3-0.1,0.6-0.3,0.8
			c-0.2,0.2-0.5,0.3-0.8,0.3c-0.3,0-0.6-0.1-0.8-0.3c-0.2-0.2-0.3-0.5-0.3-0.8v-7.9l0.9-0.7c0,1.2-0.3,2.4-0.9,3.6
			c-0.6,1.2-1.4,2.3-2.4,3.3s-2.3,1.8-3.7,2.4c-1.4,0.6-2.9,0.9-4.6,0.9c-2.5,0-4.7-0.7-6.7-2s-3.5-3.1-4.6-5.3
			c-1.1-2.2-1.7-4.7-1.7-7.5c0-2.8,0.6-5.3,1.7-7.5c1.1-2.2,2.7-3.9,4.6-5.1s4.1-1.9,6.6-1.9c1.6,0,3.1,0.3,4.5,0.9
			c1.4,0.6,2.6,1.4,3.7,2.4c1.1,1,1.9,2.3,2.5,3.7c0.6,1.4,0.9,2.9,0.9,4.5l-0.9-1.4V9.8c0-0.3,0.1-0.6,0.3-0.8
			C157.4,8.8,157.6,8.7,157.9,8.7z M146.2,34.9c2.1,0,3.9-0.5,5.6-1.6c1.6-1.1,2.9-2.6,3.8-4.5s1.4-4.1,1.4-6.5
			c0-2.3-0.5-4.4-1.4-6.3c-0.9-1.9-2.2-3.4-3.8-4.5c-1.6-1.1-3.5-1.6-5.6-1.6c-2,0-3.9,0.5-5.5,1.6c-1.6,1.1-2.9,2.5-3.9,4.4
			c-0.9,1.9-1.4,4-1.4,6.4c0,2.4,0.5,4.6,1.4,6.5s2.2,3.4,3.8,4.5C142.3,34.4,144.2,34.9,146.2,34.9z"/>
		<path class="st0" d="M177.6,7.8c2.3,0,4.2,0.5,5.7,1.4s2.5,2.2,3.2,3.8s1,3.4,1,5.4v17c0,0.3-0.1,0.6-0.3,0.8
			c-0.2,0.2-0.5,0.3-0.8,0.3c-0.3,0-0.6-0.1-0.8-0.3c-0.2-0.2-0.3-0.5-0.3-0.8V18.6c0-1.6-0.3-3-0.8-4.3s-1.4-2.3-2.6-3.1
			s-2.7-1.2-4.6-1.2c-1.6,0-3.2,0.4-4.8,1.2s-2.9,1.8-3.9,3.1c-1,1.3-1.5,2.8-1.5,4.3v16.8c0,0.3-0.1,0.6-0.3,0.8
			c-0.2,0.2-0.5,0.3-0.8,0.3c-0.3,0-0.6-0.1-0.8-0.3c-0.2-0.2-0.3-0.5-0.3-0.8V9.8c0-0.3,0.1-0.6,0.3-0.8c0.2-0.2,0.5-0.3,0.8-0.3
			c0.3,0,0.6,0.1,0.8,0.3c0.2,0.2,0.3,0.5,0.3,0.8v5.5l-1.4,2.7c0-1.3,0.4-2.6,1.1-3.8c0.7-1.2,1.6-2.3,2.8-3.3
			c1.1-0.9,2.4-1.7,3.8-2.2C174.9,8.1,176.2,7.8,177.6,7.8z"/>
		<path class="st0" d="M216.3,8.7c0.3,0,0.6,0.1,0.8,0.3c0.2,0.2,0.3,0.5,0.3,0.8v25.6c0,0.3-0.1,0.6-0.3,0.8
			c-0.2,0.2-0.5,0.3-0.8,0.3c-0.3,0-0.6-0.1-0.8-0.3c-0.2-0.2-0.3-0.5-0.3-0.8v-7.9l0.9-0.7c0,1.2-0.3,2.4-0.9,3.6
			c-0.6,1.2-1.4,2.3-2.4,3.3s-2.3,1.8-3.7,2.4c-1.4,0.6-2.9,0.9-4.6,0.9c-2.5,0-4.7-0.7-6.7-2s-3.5-3.1-4.6-5.3
			c-1.1-2.2-1.7-4.7-1.7-7.5c0-2.8,0.6-5.3,1.7-7.5c1.1-2.2,2.7-3.9,4.6-5.1s4.1-1.9,6.6-1.9c1.6,0,3.1,0.3,4.5,0.9
			c1.4,0.6,2.6,1.4,3.7,2.4c1.1,1,1.9,2.3,2.5,3.7c0.6,1.4,0.9,2.9,0.9,4.5l-0.9-1.4V9.8c0-0.3,0.1-0.6,0.3-0.8
			C215.7,8.8,215.9,8.7,216.3,8.7z M204.6,34.9c2.1,0,3.9-0.5,5.6-1.6c1.6-1.1,2.9-2.6,3.8-4.5s1.4-4.1,1.4-6.5
			c0-2.3-0.5-4.4-1.4-6.3c-0.9-1.9-2.2-3.4-3.8-4.5c-1.6-1.1-3.5-1.6-5.6-1.6c-2,0-3.9,0.5-5.5,1.6c-1.6,1.1-2.9,2.5-3.9,4.4
			c-0.9,1.9-1.4,4-1.4,6.4c0,2.4,0.5,4.6,1.4,6.5s2.2,3.4,3.8,4.5S202.5,34.9,204.6,34.9z"/>
		<path class="st0" d="M234.8,7.8c1.7,0,3.2,0.3,4.7,0.9s2.7,1.4,3.8,2.3s1.9,2,2.6,3.1s0.9,2.2,0.9,3.3l-0.7-2.1V9.8
			c0-0.3,0.1-0.6,0.3-0.8c0.2-0.2,0.5-0.3,0.8-0.3s0.6,0.1,0.8,0.3c0.2,0.2,0.3,0.5,0.3,0.8v24c0,2.9-0.6,5.3-1.8,7.4
			s-2.8,3.7-4.8,4.8c-2,1.1-4.4,1.7-7.1,1.7c-1.5,0-3-0.2-4.5-0.6c-1.5-0.4-2.8-0.9-3.8-1.5c-1-0.6-1.5-1.2-1.5-1.9
			c0-0.3,0.1-0.5,0.2-0.7c0.2-0.2,0.4-0.3,0.7-0.3c0.4,0,0.7,0.2,1,0.6c0.3,0.4,0.9,0.8,1.7,1.1c0.3,0.1,0.8,0.3,1.4,0.5
			c0.6,0.2,1.3,0.3,2.1,0.5c0.8,0.1,1.7,0.2,2.7,0.2c3.5,0,6.3-1.1,8.3-3.3c2-2.2,3-5,3-8.5v-5.5l0.6,0.1c-0.4,1.6-1.1,3-1.9,4.1
			c-0.9,1.1-1.8,2-2.9,2.7c-1.1,0.7-2.2,1.2-3.4,1.5c-1.2,0.3-2.4,0.5-3.5,0.5c-2.6,0-4.9-0.6-6.9-1.9s-3.6-3-4.8-5.2
			s-1.8-4.7-1.8-7.5s0.6-5.3,1.8-7.5s2.8-3.9,4.8-5.2C230,8.4,232.2,7.8,234.8,7.8z M234.9,9.9c-2.1,0-4.1,0.5-5.8,1.6
			c-1.7,1.1-3.1,2.6-4.1,4.4c-1,1.9-1.5,4-1.5,6.4c0,2.4,0.5,4.5,1.5,6.4c1,1.9,2.3,3.4,4.1,4.5c1.7,1.1,3.7,1.6,5.8,1.6
			c2.1,0,4.1-0.5,5.8-1.6c1.7-1.1,3.1-2.5,4.1-4.4c1-1.9,1.5-4.1,1.5-6.6s-0.5-4.7-1.5-6.5s-2.4-3.3-4.1-4.4
			C239,10.4,237.1,9.9,234.9,9.9z"/>
		<path class="st0" d="M265.4,37c-2.8,0-5.2-0.6-7.4-1.8c-2.1-1.2-3.8-2.9-5-5c-1.2-2.2-1.8-4.7-1.8-7.7c0-3.1,0.6-5.8,1.8-8
			c1.2-2.2,2.8-3.9,4.7-5s4-1.8,6.1-1.8c1.6,0,3.1,0.2,4.6,0.8c1.5,0.5,2.8,1.3,4,2.3s2.1,2.4,2.8,3.9c0.7,1.6,1.1,3.5,1.2,5.7
			c0,0.3-0.1,0.6-0.3,0.8s-0.5,0.4-0.8,0.4h-22.7l-0.3-2.1h22.5l-0.6,0.5v-1c-0.2-2-0.8-3.6-1.9-5s-2.3-2.3-3.8-3
			c-1.5-0.7-3-1-4.6-1c-1.1,0-2.3,0.2-3.5,0.8s-2.4,1.3-3.4,2.3c-1,1-1.9,2.3-2.5,3.9c-0.6,1.6-1,3.4-1,5.5c0,2.3,0.4,4.3,1.4,6.2
			c0.9,1.9,2.3,3.4,4.1,4.6c1.8,1.2,4,1.7,6.7,1.7c1.3,0,2.5-0.2,3.6-0.6s2.1-1,3-1.7c0.9-0.7,1.6-1.5,2.2-2.3
			c0.3-0.3,0.6-0.5,1-0.5c0.3,0,0.5,0.1,0.7,0.3c0.2,0.2,0.3,0.4,0.3,0.7s-0.1,0.5-0.2,0.7c-1.1,1.5-2.6,2.8-4.4,3.9
			C269.6,36.5,267.6,37,265.4,37z"/>
		<path class="st0" d="M281.4,36.5c-0.3,0-0.6-0.1-0.8-0.3c-0.2-0.2-0.3-0.5-0.3-0.8V9.8c0-0.3,0.1-0.6,0.3-0.8
			c0.2-0.2,0.5-0.3,0.8-0.3c0.3,0,0.6,0.1,0.8,0.3c0.2,0.2,0.3,0.5,0.3,0.8v9.4l-1,1.5c0-1.5,0.2-2.9,0.8-4.4
			c0.5-1.5,1.2-2.9,2.2-4.1c1-1.3,2.1-2.3,3.5-3.1c1.4-0.8,3-1.2,4.8-1.2c0.5,0,1.1,0.1,1.7,0.2c0.6,0.1,0.9,0.5,0.9,1.1
			c0,0.3-0.1,0.6-0.3,0.8c-0.2,0.2-0.4,0.3-0.7,0.3c-0.2,0-0.5-0.1-0.8-0.2s-0.8-0.2-1.4-0.2c-1.2,0-2.4,0.4-3.5,1.1
			c-1.1,0.7-2.2,1.6-3.1,2.8c-1,1.2-1.7,2.4-2.3,3.8c-0.6,1.4-0.8,2.7-0.8,4v13.9c0,0.3-0.1,0.6-0.3,0.8
			C281.9,36.4,281.7,36.5,281.4,36.5z"/>
	</g>
</g>
<path class="st1" d="M22.9,32.1C22.6,32,22.3,32,22,32c-1.2,0-2.4-0.1-3.5-0.5c-1.9-0.6-3.3-1.8-4.2-3.5c-0.6-1.2-0.9-2.6-1-3.9
	c0-0.6,0-1.3,0-1.9c0-3,0-6,0-9c0-0.1,0-0.2,0-0.3c0.1,0,0.2,0,0.3,0c1.3,0,2.7,0,4,0c0.5,0,0.9-0.1,1.2-0.3c0.8-0.5,1.1-1.2,1-2.1
	c-0.1-1-0.8-1.8-1.7-2c-0.2-0.1-0.4-0.1-0.7-0.1c-1.3,0-2.6,0-3.9,0c-0.1,0-0.2,0-0.3,0c0-0.1,0-0.2,0-0.3c0-1.3,0-2.5,0-3.8
	c0-0.2,0-0.4-0.1-0.6c-0.2-1-0.9-1.7-1.9-2c-0.1,0-0.2,0-0.3-0.1c-0.3,0-0.5,0-0.8,0c0,0-0.1,0-0.1,0C8.9,1.7,8,2.8,8,4
	C8,5.3,8,6.6,8,8C8,8,8,8.1,8,8.2c-0.2,0-0.3,0-0.5,0c-0.9,0.1-1.8,0.8-2,1.7c0,0.1-0.1,0.1-0.1,0.2c0,0.2,0,0.4,0,0.6
	c0,0.1,0.1,0.1,0.1,0.2c0.3,1,1.2,1.7,2.2,1.7c0.1,0,0.2,0,0.3,0c0,0.1,0,0.2,0,0.3c0,3.3,0,6.6,0,9.9C8,23.4,8,24,8,24.5
	c0.1,1.4,0.4,2.8,0.8,4.2c0.7,2,1.9,3.7,3.5,5.1c2,1.7,4.3,2.5,6.9,2.9c0.6,0.1,1.3,0.1,1.9,0.2c0.5,0,1,0,1.5,0
	c1.3-0.1,2.1-1.2,2.1-2.4C24.7,33.3,24,32.3,22.9,32.1z"/>
<path class="st1" d="M70.3,23.5c-0.3-0.4-0.6-0.8-0.9-1.2c0.1-0.1,0.1-0.1,0.2-0.2c2.4-3,4.8-6.1,7.1-9.1c0.2-0.3,0.5-0.6,0.7-1
	c0.4-0.5,0.6-1.1,0.4-1.8c-0.3-1.9-2.3-2.4-3.5-1.8c-0.5,0.2-0.8,0.6-1.2,1c-2.2,2.9-4.4,5.9-6.6,8.8c-0.1,0.1-0.1,0.1-0.2,0.2
	c-0.1-0.1-0.2-0.2-0.2-0.3c-2.3-3-4.7-5.9-7-8.9c-0.6-0.8-1.5-1.2-2.5-1c-1.4,0.2-2.5,1.6-2.2,3.2c0.1,0.4,0.3,0.8,0.6,1.1
	c2.6,3.3,5.3,6.7,7.9,10c0,0,0.1,0.1,0.1,0.1c0,0.1-0.1,0.1-0.1,0.2c-2.6,3.2-5.1,6.5-7.7,9.7c-0.2,0.2-0.3,0.4-0.4,0.6
	c-0.4,0.7-0.4,1.5,0,2.2c0.2,0.5,0.7,0.8,1.1,1c1.1,0.6,2.4,0.3,3.2-0.7c2.3-3,4.6-5.9,6.9-8.9c0.1-0.1,0.1-0.1,0.2-0.2
	c0.1,0.1,0.1,0.1,0.1,0.2c1.5,1.9,2.9,3.7,4.4,5.6c0.9,1.1,1.7,2.2,2.6,3.3c0.3,0.4,0.6,0.6,1,0.8c1.1,0.5,2.4,0.1,3.1-0.9
	c0.7-0.9,0.7-2.3-0.1-3.2C75,29.5,72.7,26.5,70.3,23.5z"/>
<path class="st1" d="M51.8,21c0-0.8-0.1-1.7-0.3-2.5c-0.3-1.7-1-3.2-1.9-4.6c-1.3-1.9-2.9-3.4-4.9-4.4c-2.5-1.2-5.1-1.6-7.8-1.1
	c-2.5,0.4-4.7,1.6-6.5,3.4c-2.4,2.3-3.7,5.1-4.1,8.4c-0.1,1.1-0.2,2.1-0.2,3.2c0,1.1,0.1,2.3,0.5,3.4c1.2,4.5,4,7.6,8.3,9.3
	c1.7,0.7,3.6,0.9,5.4,0.9c1.5,0,2.9-0.2,4.3-0.8c2.1-0.8,4-2,5.5-3.7c0.5-0.6,0.8-1.2,0.6-2c-0.2-1.2-1.4-2-2.6-1.8
	c-0.5,0.1-0.9,0.3-1.3,0.6c-0.4,0.3-0.8,0.7-1.2,1c-0.9,0.7-1.9,1.2-3,1.5c-1.5,0.4-3,0.4-4.5,0.1c-1.8-0.4-3.3-1.2-4.5-2.5
	c-0.9-0.9-1.5-2-1.9-3.2c-0.2-0.7-0.4-1.4-0.5-2.1c0-0.1,0-0.2,0-0.3c0,0,0,0,0,0c0-0.5-0.1-1-0.1-1.6c0-1.2,0.2-2.3,0.5-3.4
	c0,0,0,0,0,0c0,0,0,0,0-0.1c0-0.2,0.1-0.3,0.2-0.5c0.3-0.9,0.8-1.8,1.4-2.5c1.1-1.2,2.4-2,4-2.4c2.4-0.6,4.7-0.1,6.7,1.4
	c1.1,0.8,1.9,1.8,2.3,3.1c0.1,0.4,0.2,0.9,0.3,1.3c0,0.1,0,0.1,0,0.2c-4.1,0-4.4,0-8.5,0l0,0c-0.6,0-1.2,0-1.8,0
	c-0.5,0-0.9,0.1-1.2,0.4c-0.8,0.5-1.1,1.2-1,2.1c0.1,1,0.8,1.8,1.7,2c0.2,0,0.5,0.1,0.7,0.1c0.6,0,1.1,0,1.7,0l0,0c0,0,0,0,0,0l0,0
	l0,0c5,0,6.1,0,11.2,0c0.1,0,0.2,0,0.3,0c1-0.1,1.7-0.6,2.2-1.5C51.8,21.9,51.8,21.4,51.8,21z"/>
</svg>
